<?xml version="1.0" standalone="no"?>
<!DOCTYPE svg PUBLIC "-//W3C//DTD SVG 20010904//EN"
 "http://www.w3.org/TR/2001/REC-SVG-20010904/DTD/svg10.dtd">
<svg version="1.0" xmlns="http://www.w3.org/2000/svg"
 width="500.000000pt" height="500.000000pt" viewBox="0 0 500.000000 500.000000"
 preserveAspectRatio="xMidYMid meet">
<metadata>
Created by potrace 1.11, written by Peter Selinger 2001-2013
</metadata>
<g transform="translate(0.000000,500.000000) scale(0.100000,-0.100000)"
fill="#000000" stroke="none">
<path d="M2305 4578 c-147 -20 -348 -69 -430 -103 -229 -97 -352 -168 -501
-287 -72 -57 -204 -184 -258 -247 -39 -46 -156 -209 -156 -217 0 -4 -7 -15
-15 -24 -17 -19 -106 -196 -136 -272 -48 -121 -89 -271 -104 -383 -3 -22 -8
-47 -10 -55 -2 -8 -7 -61 -10 -117 l-6 -103 70 0 71 0 0 -220 0 -220 -105 0
c-101 0 -106 -1 -137 -29 -27 -24 -32 -36 -36 -90 l-4 -61 -102 0 c-112 0
-134 -9 -161 -60 -22 -43 -22 -607 0 -650 27 -51 49 -60 161 -60 l102 0 4 -61
c4 -54 9 -66 36 -90 l32 -29 370 0 370 0 32 29 33 29 0 507 0 507 -33 29 c-31
27 -37 29 -122 29 l-90 0 0 220 0 220 49 0 48 0 0 43 c1 77 23 201 54 302 149
483 568 828 1069 882 107 11 267 6 350 -12 14 -3 41 -8 60 -11 50 -10 194 -61
270 -97 206 -97 418 -295 537 -502 94 -162 159 -377 165 -547 l2 -58 58 0 58
0 0 -235 0 -235 -95 0 c-91 0 -96 -1 -127 -29 l-33 -29 0 -507 0 -507 33 -29
32 -29 370 0 370 0 32 29 c27 24 32 36 36 90 l4 61 104 0 c100 0 105 1 136 29
l33 29 3 314 c3 404 6 398 -182 398 l-94 0 -4 61 c-4 54 -9 66 -36 90 -31 28
-37 29 -132 29 l-100 0 0 235 0 235 61 0 61 0 -6 88 c-13 176 -31 279 -80 437
-139 459 -464 850 -901 1085 -160 86 -395 164 -565 187 -19 2 -62 8 -95 13
-78 10 -333 9 -410 -2z"/>
</g>
</svg>
